<?xml version="1.0" standalone="no"?>
<!DOCTYPE svg PUBLIC "-//W3C//DTD SVG 20010904//EN"
 "http://www.w3.org/TR/2001/REC-SVG-20010904/DTD/svg10.dtd">
<svg version="1.0" xmlns="http://www.w3.org/2000/svg"
 width="960.000000pt" height="960.000000pt" viewBox="0 0 960.000000 960.000000"
 preserveAspectRatio="xMidYMid meet">

<g transform="translate(0.000000,960.000000) scale(0.100000,-0.100000)"
fill="#000000" stroke="none">
<path d="M1755 5704 c-141 -30 -244 -84 -328 -173 -74 -79 -118 -151 -152
-251 -103 -303 -21 -634 189 -767 141 -89 363 -95 524 -14 65 33 148 104 174
149 l18 29 -56 79 c-31 44 -60 83 -65 88 -8 9 -119 -51 -119 -65 0 -3 16 -27
35 -52 28 -37 32 -47 21 -56 -25 -21 -133 -32 -207 -22 -175 24 -247 128 -257
372 -7 192 29 325 115 419 45 50 86 70 145 70 70 0 82 -15 103 -130 10 -56 24
-104 29 -106 6 -2 44 2 85 9 l75 12 -2 65 c-4 117 -23 315 -31 323 -20 20
-229 34 -296 21z"/>
<path d="M6891 5321 c-8 -5 -72 -173 -141 -373 l-127 -363 -32 -3 c-31 -3 -31
-4 -31 -58 l0 -54 145 0 145 0 0 55 c0 55 0 55 -31 55 -31 0 -31 0 -24 43 4
23 10 46 14 50 4 4 59 6 121 5 l113 -3 14 -39 c15 -44 8 -56 -34 -56 -21 0
-23 -5 -23 -55 l0 -55 175 0 175 0 0 55 c0 51 -2 55 -24 55 -32 0 -39 11 -69
105 -14 44 -67 207 -117 363 l-91 282 -72 0 c-40 0 -78 -4 -86 -9z m79 -381
c17 -63 34 -123 36 -132 5 -16 -4 -18 -80 -18 -47 0 -86 3 -86 6 0 4 9 39 21
78 11 39 30 102 41 140 13 47 23 65 28 55 4 -7 22 -66 40 -129z"/>
<path d="M2627 5310 c-204 -52 -335 -259 -313 -492 18 -178 99 -294 245 -349
82 -31 232 -24 313 13 148 69 238 225 238 415 0 189 -80 334 -217 394 -55 24
-203 35 -266 19z m164 -126 c61 -55 93 -183 87 -349 -7 -191 -56 -275 -160
-275 -46 0 -54 4 -93 43 -60 59 -78 126 -78 282 0 146 23 233 75 282 18 17 40
33 48 37 28 10 101 -1 121 -20z"/>
<path d="M4908 5312 l-78 -3 0 -54 0 -55 35 0 35 0 0 -309 c0 -332 2 -321 -51
-321 -16 0 -19 -7 -19 -50 l0 -50 170 0 170 0 0 49 c0 48 -1 49 -35 55 l-35 7
0 104 0 105 28 0 c16 0 36 -8 45 -17 8 -10 42 -81 74 -158 l58 -140 128 -3
127 -3 0 56 c0 53 -1 55 -27 55 -16 0 -33 4 -39 8 -7 4 -35 56 -64 115 -30 60
-66 118 -82 132 l-29 24 28 15 c73 38 126 124 127 206 0 99 -66 184 -169 216
-50 16 -222 23 -397 16z m282 -117 c43 -22 70 -82 70 -156 0 -58 -2 -63 -39
-100 -32 -33 -45 -39 -80 -39 l-41 0 0 155 0 155 30 0 c17 0 44 -7 60 -15z"/>
<path d="M6197 5313 c-4 -3 -7 -28 -7 -54 l0 -48 45 -7 45 -6 0 -226 c0 -124
-2 -223 -5 -221 -5 5 -306 485 -334 531 l-16 28 -122 0 -123 0 0 -55 0 -55 35
0 35 0 1 -222 c1 -123 2 -261 3 -308 l1 -85 -32 -3 c-33 -3 -33 -4 -33 -58 l0
-54 145 0 145 0 0 54 0 55 -42 3 -43 3 -3 193 c-1 105 1 192 5 192 5 -1 49
-62 100 -138 50 -75 131 -190 179 -256 l87 -119 61 6 c106 10 96 -30 96 378
l0 360 30 6 c29 5 30 8 30 59 l0 54 -138 0 c-76 0 -142 -3 -145 -7z"/>
<path d="M7356 5194 c-3 -69 -4 -129 -1 -135 4 -5 33 -9 65 -9 l59 0 11 58
c15 80 20 87 74 90 l46 3 0 -305 0 -306 -28 0 c-47 0 -64 -20 -60 -70 l3 -45
193 -3 192 -2 0 60 0 60 -45 0 -45 0 0 305 0 305 43 0 c23 0 47 -4 54 -8 6 -4
17 -38 23 -75 13 -74 15 -75 103 -61 l37 7 0 67 c0 37 -3 95 -6 129 l-7 61
-352 0 -352 0 -7 -126z"/>
<path d="M3140 5256 c0 -54 0 -55 32 -58 l32 -3 67 -224 c37 -123 91 -290 119
-372 l52 -149 88 0 87 0 96 263 c53 144 114 312 136 372 37 106 40 110 70 113
31 3 31 4 31 58 l0 54 -150 0 -150 0 0 -55 c0 -55 0 -55 30 -55 17 0 33 -6 36
-14 7 -19 -119 -480 -136 -499 -11 -12 -113 389 -122 478 -3 28 -1 30 35 33
l37 3 0 55 0 54 -195 0 -195 0 0 -54z"/>
<path d="M4090 5255 l0 -55 35 0 35 0 0 -309 c0 -332 2 -321 -51 -321 -16 0
-19 -7 -19 -55 l0 -55 287 2 287 3 22 110 c12 61 19 113 16 117 -4 4 -32 10
-62 14 l-56 6 -17 -56 c-11 -32 -26 -60 -38 -66 -11 -6 -50 -10 -87 -8 l-67 3
-3 128 -3 127 56 0 c36 0 57 -4 59 -12 3 -7 7 -25 10 -40 6 -26 9 -28 61 -28
l56 0 -3 133 -3 132 -52 3 c-50 3 -53 2 -59 -25 -3 -15 -7 -34 -10 -40 -2 -9
-23 -13 -59 -13 l-55 0 0 126 0 127 73 -7 c82 -8 92 -16 102 -81 7 -49 11 -51
88 -39 l37 7 0 67 c0 37 -3 88 -6 114 l-7 46 -283 0 -284 0 0 -55z"/>
<path d="M8142 4740 c-130 -80 -74 -280 79 -280 115 0 184 123 126 224 -41 71
-136 98 -205 56z m149 -23 c22 -15 39 -38 49 -65 13 -37 13 -47 0 -84 -21 -61
-69 -91 -134 -85 -41 4 -55 11 -83 41 -28 30 -33 43 -33 85 0 107 113 168 201
108z"/>
<path d="M8155 4701 c-3 -2 -5 -44 -5 -93 0 -72 3 -88 15 -88 11 0 15 11 15
40 0 33 3 40 19 40 13 0 28 -15 42 -40 13 -22 29 -40 36 -40 18 0 17 7 -8 46
l-20 33 20 20 c12 12 21 27 21 35 0 19 -27 46 -48 47 -66 4 -83 4 -87 0z m101
-36 c9 -23 -15 -45 -47 -45 -26 0 -29 4 -29 30 0 28 3 30 35 30 23 0 38 -6 41
-15z"/>
<path d="M1906 4045 c-41 -164 -41 -165 -22 -165 9 0 19 20 26 50 12 49 13 50
51 50 36 0 39 -2 48 -37 6 -21 11 -44 11 -50 0 -7 7 -13 15 -13 20 0 19 15
-11 133 -45 181 -43 177 -63 177 -15 0 -25 -24 -55 -145z m78 3 c7 -37 6 -38
-24 -38 -25 0 -30 4 -26 18 2 9 8 33 11 52 14 68 21 62 39 -32z"/>
<path d="M2560 4060 c0 -126 1 -132 25 -155 13 -14 36 -25 50 -25 14 0 37 11
50 25 24 23 25 29 25 155 0 109 -2 130 -15 130 -13 0 -15 -20 -15 -124 0 -100
-3 -128 -16 -140 -21 -22 -40 -20 -58 6 -12 17 -16 50 -16 140 0 98 -3 118
-15 118 -13 0 -15 -21 -15 -130z"/>
<path d="M3230 4175 c0 -10 11 -15 35 -15 l35 0 0 -135 c0 -113 2 -135 15
-135 13 0 15 22 15 135 l0 135 30 0 c20 0 30 5 30 15 0 12 -16 15 -80 15 -64
0 -80 -3 -80 -15z"/>
<path d="M3910 4041 c0 -123 3 -150 15 -155 13 -4 15 7 15 69 l0 75 45 0 45 0
0 -70 c0 -56 3 -70 15 -70 13 0 15 23 15 150 0 127 -2 150 -15 150 -12 0 -15
-14 -15 -65 l0 -65 -45 0 -45 0 0 65 c0 51 -3 65 -15 65 -13 0 -15 -23 -15
-149z"/>
<path d="M4600 4040 l0 -150 70 0 c40 0 70 4 70 10 0 6 -25 10 -55 10 l-55 0
0 60 0 60 45 0 c33 0 45 4 45 15 0 11 -12 15 -45 15 l-45 0 0 50 0 50 55 0
c42 0 55 3 55 15 0 12 -14 15 -70 15 l-70 0 0 -150z"/>
<path d="M5260 4040 c0 -127 2 -150 15 -150 12 0 15 20 16 118 l0 117 42 -117
c36 -104 44 -118 64 -118 23 0 23 0 23 150 0 143 -1 150 -20 150 -18 0 -20 -8
-22 -112 l-3 -113 -38 113 c-31 90 -42 112 -58 112 -18 0 -19 -9 -19 -150z"/>
<path d="M5930 4175 c0 -10 11 -15 35 -15 l35 0 0 -135 c0 -113 2 -135 15
-135 13 0 15 22 15 135 l0 135 30 0 c20 0 30 5 30 15 0 12 -16 15 -80 15 -64
0 -80 -3 -80 -15z"/>
<path d="M6630 4175 c0 -8 9 -15 20 -15 19 0 20 -7 20 -125 0 -118 -1 -125
-20 -125 -11 0 -20 -4 -20 -10 0 -5 25 -10 55 -10 54 0 74 13 35 23 -19 5 -20
14 -20 126 0 114 1 121 20 121 11 0 20 7 20 15 0 12 -13 15 -55 15 -42 0 -55
-3 -55 -15z"/>
<path d="M7317 4172 c-26 -29 -37 -70 -37 -140 0 -79 22 -132 62 -146 45 -16
112 24 92 55 -3 5 -17 0 -31 -11 -32 -25 -45 -25 -68 0 -12 13 -19 42 -22 87
-9 116 34 176 89 126 15 -13 21 -14 31 -4 9 10 7 16 -12 32 -29 24 -83 25
-104 1z"/>
</g>
</svg>
